# xmcd CD database file
#
# Track frame offsets:
#	150
#	13923
#	26170
#	37823
#	51993
#	65439
#	79908
#	92906
#	106461
#	118897
#	132020
#	146721
#	155002
#	168537
#	181270
#	195547
#	209147
#	223307
#	235879
#	246568
#
# Disc length: 3471 seconds
#
# Revision: 1
# Processed by: cddbd v1.5.2PL0 Copyright (c) Steve Scherf et al.
# Submitted via: CDex 1.51
#
DISCID=370d8d14
DTITLE=Teddy Wilson - Jumpin' For Joy  Disc 07
DYEAR=1900
DGENRE=Jazz
TTITLE0=Everybody's Laughing
TTITLE1=Here It Is tomorrow Again
TTITLE2=Say It With A Kiss
TTITLE3=April In My Heart
TTITLE4=I'll Never Fail You
TTITLE5=They Say
TTITLE6=You're So Desirable
TTITLE7=You're Going Too See A Lot Of Me
TTITLE8=Hello, My Darling
TTITLE9=Let's Dream In The Moonlight
TTITLE10=Coquette
TTITLE11=China Boy
TTITLE12=Melody In F
TTITLE13=When You And I Were Young Maggie
TTITLE14=What Shall I Say ?
TTITLE15=It's Easy To Blame The Weather
TTITLE16=More Than You Know
TTITLE17=Sugar
TTITLE18=Why Begin Again
TTITLE19=Jumpin' For Joy
EXTD=
EXTT0=
EXTT1=
EXTT2=
EXTT3=
EXTT4=
EXTT5=
EXTT6=
EXTT7=
EXTT8=
EXTT9=
EXTT10=
EXTT11=
EXTT12=
EXTT13=
EXTT14=
EXTT15=
EXTT16=
EXTT17=
EXTT18=
EXTT19=
PLAYORDER=
